<svg width="800" height="58" viewBox="0 0 800 58" fill="none" xmlns="http://www.w3.org/2000/svg">
<path d="M815.5 1C774.5 26.1666 680.483 67.8967 613.5 54.5C526 37 459 7 297 34.5C171.735 55.764 147 -36 -13 50L-95 37" stroke="#81C341"/>
<rect x="325" y="10" width="137" height="34" fill="white"/>
<path d="M336.02 24.976C337.121 25.1813 338.027 25.732 338.736 26.628C339.445 27.524 339.8 28.5507 339.8 29.708C339.8 30.7533 339.539 31.6773 339.016 32.48C338.512 33.264 337.775 33.88 336.804 34.328C335.833 34.776 334.685 35 333.36 35H324.932V15.456H332.996C334.321 15.456 335.46 15.6707 336.412 16.1C337.383 16.5293 338.111 17.1267 338.596 17.892C339.1 18.6573 339.352 19.5253 339.352 20.496C339.352 21.6347 339.044 22.5867 338.428 23.352C337.831 24.1173 337.028 24.6587 336.02 24.976ZM328.852 23.576H332.436C333.369 23.576 334.088 23.3613 334.592 22.932C335.096 22.5027 335.348 21.8867 335.348 21.084C335.348 20.2813 335.087 19.656 334.564 19.208C334.06 18.76 333.351 18.536 332.436 18.536H328.852V23.576ZM332.8 31.892C333.752 31.892 334.489 31.668 335.012 31.22C335.553 30.7533 335.824 30.0907 335.824 29.232C335.824 28.392 335.544 27.7293 334.984 27.244C334.424 26.7587 333.668 26.516 332.716 26.516H328.852V31.892H332.8ZM357.344 26.88C357.344 27.4027 357.307 27.888 357.232 28.336H345.892C345.967 29.4747 346.35 30.3707 347.04 31.024C347.731 31.6773 348.59 32.004 349.616 32.004C351.072 32.004 352.108 31.3787 352.724 30.128H356.952C356.504 31.6213 355.646 32.8533 354.376 33.824C353.107 34.776 351.548 35.252 349.7 35.252C348.207 35.252 346.863 34.9253 345.668 34.272C344.492 33.6 343.568 32.6573 342.896 31.444C342.243 30.2307 341.916 28.8307 341.916 27.244C341.916 25.6387 342.243 24.2293 342.896 23.016C343.55 21.8027 344.464 20.8693 345.64 20.216C346.816 19.5627 348.17 19.236 349.7 19.236C351.175 19.236 352.491 19.5533 353.648 20.188C354.824 20.8227 355.73 21.7187 356.364 22.876C357.018 24.0333 357.344 25.368 357.344 26.88ZM353.284 25.956C353.266 24.8733 352.902 24.024 352.192 23.408C351.502 22.7733 350.634 22.456 349.588 22.456C348.599 22.456 347.768 22.7733 347.096 23.408C346.424 24.024 346.023 24.8733 345.892 25.956H353.284ZM366.113 35.252C364.844 35.252 363.705 35.028 362.697 34.58C361.708 34.1133 360.915 33.488 360.317 32.704C359.739 31.92 359.421 31.052 359.365 30.1H363.313C363.388 30.7533 363.677 31.2853 364.181 31.696C364.685 32.088 365.329 32.284 366.113 32.284C366.86 32.284 367.439 32.1347 367.849 31.836C368.279 31.5187 368.493 31.0987 368.493 30.576C368.493 30.072 368.232 29.6893 367.709 29.428C367.205 29.1667 366.384 28.896 365.245 28.616C364.107 28.336 363.173 28.056 362.445 27.776C361.717 27.4773 361.092 27.02 360.569 26.404C360.047 25.788 359.785 24.976 359.785 23.968C359.785 23.0907 360.019 22.2973 360.485 21.588C360.971 20.86 361.671 20.2907 362.585 19.88C363.519 19.4507 364.611 19.236 365.861 19.236C367.709 19.236 369.184 19.7027 370.285 20.636C371.387 21.5507 371.993 22.792 372.105 24.36H368.353C368.297 23.7067 368.036 23.184 367.569 22.792C367.121 22.4 366.515 22.204 365.749 22.204C365.04 22.204 364.489 22.3533 364.097 22.652C363.724 22.932 363.537 23.324 363.537 23.828C363.537 24.3507 363.799 24.752 364.321 25.032C364.844 25.2933 365.656 25.564 366.757 25.844C367.877 26.124 368.801 26.4133 369.529 26.712C370.257 27.0107 370.883 27.468 371.405 28.084C371.928 28.6813 372.189 29.4933 372.189 30.52C372.189 31.416 371.947 32.228 371.461 32.956C370.976 33.6653 370.276 34.2253 369.361 34.636C368.447 35.0467 367.364 35.252 366.113 35.252ZM380.027 22.708V30.212C380.027 30.7347 380.149 31.1173 380.391 31.36C380.653 31.584 381.082 31.696 381.679 31.696H383.499V35H381.035C377.731 35 376.079 33.3947 376.079 30.184V22.708H374.231V19.488H376.079V15.652H380.027V19.488H383.499V22.708H380.027ZM400.559 35.196C399.196 35.196 397.964 34.9627 396.863 34.496C395.78 34.0293 394.922 33.3573 394.287 32.48C393.652 31.6027 393.326 30.5667 393.307 29.372H397.507C397.563 30.1933 397.843 30.8467 398.347 31.332C398.87 31.8173 399.579 32.06 400.475 32.06C401.39 32.06 402.108 31.836 402.631 31.388C403.154 30.94 403.415 30.3427 403.415 29.596C403.415 29.0173 403.238 28.5413 402.883 28.168C402.528 27.7947 402.08 27.5053 401.539 27.3C401.016 27.076 400.288 26.8333 399.355 26.572C398.086 26.1987 397.05 25.8347 396.247 25.48C395.463 25.1067 394.782 24.556 394.203 23.828C393.643 23.0813 393.363 22.092 393.363 20.86C393.363 19.7027 393.652 18.6947 394.231 17.836C394.81 16.9773 395.622 16.324 396.667 15.876C397.712 15.4093 398.907 15.176 400.251 15.176C402.267 15.176 403.9 15.6707 405.151 16.66C406.42 17.6307 407.12 18.9933 407.251 20.748H402.939C402.902 20.02 402.612 19.4413 402.071 19.012C401.548 18.564 400.848 18.34 399.971 18.34C399.206 18.34 398.59 18.5453 398.123 18.956C397.675 19.348 397.451 19.936 397.451 20.72C397.451 21.2427 397.619 21.6813 397.955 22.036C398.31 22.372 398.739 22.652 399.243 22.876C399.766 23.0813 400.494 23.324 401.427 23.604C402.696 23.9773 403.732 24.3507 404.535 24.724C405.338 25.0973 406.028 25.6573 406.607 26.404C407.186 27.1507 407.475 28.1307 407.475 29.344C407.475 30.3893 407.204 31.36 406.663 32.256C406.122 33.152 405.328 33.8707 404.283 34.412C403.238 34.9347 401.996 35.196 400.559 35.196ZM425.293 26.88C425.293 27.4027 425.256 27.888 425.181 28.336H413.841C413.916 29.4747 414.299 30.3707 414.989 31.024C415.68 31.6773 416.539 32.004 417.565 32.004C419.021 32.004 420.057 31.3787 420.673 30.128H424.901C424.453 31.6213 423.595 32.8533 422.325 33.824C421.056 34.776 419.497 35.252 417.649 35.252C416.156 35.252 414.812 34.9253 413.617 34.272C412.441 33.6 411.517 32.6573 410.845 31.444C410.192 30.2307 409.865 28.8307 409.865 27.244C409.865 25.6387 410.192 24.2293 410.845 23.016C411.499 21.8027 412.413 20.8693 413.589 20.216C414.765 19.5627 416.119 19.236 417.649 19.236C419.124 19.236 420.44 19.5533 421.597 20.188C422.773 20.8227 423.679 21.7187 424.313 22.876C424.967 24.0333 425.293 25.368 425.293 26.88ZM421.233 25.956C421.215 24.8733 420.851 24.024 420.141 23.408C419.451 22.7733 418.583 22.456 417.537 22.456C416.548 22.456 415.717 22.7733 415.045 23.408C414.373 24.024 413.972 24.8733 413.841 25.956H421.233ZM432.075 14.28V35H428.155V14.28H432.075ZM439.868 14.28V35H435.948V14.28H439.868ZM458.161 26.88C458.161 27.4027 458.123 27.888 458.049 28.336H446.709C446.783 29.4747 447.166 30.3707 447.857 31.024C448.547 31.6773 449.406 32.004 450.433 32.004C451.889 32.004 452.925 31.3787 453.541 30.128H457.769C457.321 31.6213 456.462 32.8533 455.193 33.824C453.923 34.776 452.365 35.252 450.517 35.252C449.023 35.252 447.679 34.9253 446.485 34.272C445.309 33.6 444.385 32.6573 443.713 31.444C443.059 30.2307 442.733 28.8307 442.733 27.244C442.733 25.6387 443.059 24.2293 443.713 23.016C444.366 21.8027 445.281 20.8693 446.457 20.216C447.633 19.5627 448.986 19.236 450.517 19.236C451.991 19.236 453.307 19.5533 454.465 20.188C455.641 20.8227 456.546 21.7187 457.181 22.876C457.834 24.0333 458.161 25.368 458.161 26.88ZM454.101 25.956C454.082 24.8733 453.718 24.024 453.009 23.408C452.318 22.7733 451.45 22.456 450.405 22.456C449.415 22.456 448.585 22.7733 447.913 23.408C447.241 24.024 446.839 24.8733 446.709 25.956H454.101ZM464.942 22.232C465.446 21.2987 466.099 20.5707 466.902 20.048C467.723 19.5253 468.657 19.264 469.702 19.264V23.38H468.666C467.434 23.38 466.501 23.6693 465.866 24.248C465.25 24.8267 464.942 25.8347 464.942 27.272V35H461.022V19.488H464.942V22.232Z" fill="black"/>
</svg>
