<svg width="181" height="38" viewBox="0 0 181 38" fill="none" xmlns="http://www.w3.org/2000/svg">
<g clip-path="url(#clip0_48_111)">
<path d="M110.438 19C110.438 8.50658 101.665 0 90.8438 0C80.0224 0 71.25 8.50658 71.25 19C71.25 28.4833 78.4151 36.3438 87.7822 37.7692V24.4922H82.8073V19H87.7822V14.8141C87.7822 10.0522 90.7075 7.42187 95.1831 7.42187C97.3261 7.42187 99.5691 7.79297 99.5691 7.79297V12.4687H97.0984C94.6645 12.4687 93.9053 13.9335 93.9053 15.4375V19H99.3395L98.4708 24.4922H93.9053V37.7692C103.272 36.3438 110.438 28.4833 110.438 19Z" fill="black"/>
</g>
<g clip-path="url(#clip1_48_111)">
<path d="M180.11 11.4001C180.11 11.4001 179.727 8.78018 178.548 7.62979C177.056 6.11572 175.387 6.1083 174.622 6.01924C169.142 5.6333 160.914 5.6333 160.914 5.6333H160.899C160.899 5.6333 152.671 5.6333 147.191 6.01924C146.425 6.1083 144.757 6.11572 143.264 7.62979C142.086 8.78018 141.71 11.4001 141.71 11.4001C141.71 11.4001 141.312 14.4802 141.312 17.5528V20.4325C141.312 23.5052 141.703 26.5853 141.703 26.5853C141.703 26.5853 142.086 29.2052 143.257 30.3556C144.749 31.8696 146.708 31.8177 147.581 31.981C150.719 32.2704 160.906 32.3595 160.906 32.3595C160.906 32.3595 169.142 32.3446 174.622 31.9661C175.387 31.8771 177.056 31.8696 178.548 30.3556C179.727 29.2052 180.11 26.5853 180.11 26.5853C180.11 26.5853 180.5 23.5126 180.5 20.4325V17.5528C180.5 14.4802 180.11 11.4001 180.11 11.4001ZM156.857 23.9282V13.2481L167.443 18.6067L156.857 23.9282Z" fill="black"/>
</g>
<g clip-path="url(#clip2_48_111)">
<path d="M19.5938 3.42148C24.829 3.42148 25.4489 3.44375 27.5078 3.53281C29.4212 3.61445 30.4545 3.92617 31.1434 4.18594C32.0542 4.52734 32.7124 4.94297 33.3936 5.60352C34.0824 6.27148 34.5034 6.90234 34.8554 7.78555C35.1233 8.45352 35.4448 9.46289 35.529 11.3109C35.6208 13.3148 35.6438 13.916 35.6438 18.9852C35.6438 24.0617 35.6208 24.6629 35.529 26.6594C35.4448 28.5148 35.1233 29.5168 34.8554 30.1848C34.5034 31.068 34.0748 31.7063 33.3936 32.3668C32.7047 33.0348 32.0542 33.443 31.1434 33.7844C30.4545 34.0441 29.4136 34.3559 27.5078 34.4375C25.4413 34.5266 24.8213 34.5488 19.5938 34.5488C14.3585 34.5488 13.7386 34.5266 11.6797 34.4375C9.76626 34.3559 8.733 34.0441 8.04415 33.7844C7.13335 33.443 6.47512 33.0273 5.79393 32.3668C5.10509 31.6988 4.68413 31.068 4.33206 30.1848C4.06417 29.5168 3.74271 28.5074 3.65852 26.6594C3.56668 24.6555 3.54371 24.0543 3.54371 18.9852C3.54371 13.9086 3.56668 13.3074 3.65852 11.3109C3.74271 9.45547 4.06417 8.45352 4.33206 7.78555C4.68413 6.90234 5.11274 6.26406 5.79393 5.60352C6.48278 4.93555 7.13335 4.52734 8.04415 4.18594C8.733 3.92617 9.77392 3.61445 11.6797 3.53281C13.7386 3.44375 14.3585 3.42148 19.5938 3.42148ZM19.5938 0C14.2744 0 13.6085 0.0222656 11.519 0.111328C9.43715 0.200391 8.00589 0.526953 6.76597 0.994531C5.47247 1.48438 4.37798 2.13008 3.29114 3.19141C2.19664 4.24531 1.53076 5.30664 1.02561 6.55352C0.54342 7.76328 0.206653 9.14375 0.114807 11.1625C0.0229614 13.1961 0 13.8418 0 19C0 24.1582 0.0229614 24.8039 0.114807 26.8301C0.206653 28.8488 0.54342 30.2367 1.02561 31.4391C1.53076 32.6934 2.19664 33.7547 3.29114 34.8086C4.37798 35.8625 5.47247 36.5156 6.75831 36.998C8.00589 37.4656 9.42949 37.7922 11.5113 37.8812C13.6008 37.9703 14.2667 37.9926 19.5861 37.9926C24.9055 37.9926 25.5714 37.9703 27.6609 37.8812C29.7427 37.7922 31.174 37.4656 32.4139 36.998C33.6997 36.5156 34.7942 35.8625 35.8811 34.8086C36.9679 33.7547 37.6414 32.6934 38.1389 31.4465C38.6211 30.2367 38.9579 28.8563 39.0497 26.8375C39.1416 24.8113 39.1645 24.1656 39.1645 19.0074C39.1645 13.8492 39.1416 13.2035 39.0497 11.1773C38.9579 9.15859 38.6211 7.7707 38.1389 6.56836C37.6567 5.30664 36.9909 4.24531 35.8964 3.19141C34.8095 2.1375 33.715 1.48438 32.4292 1.00195C31.1816 0.534375 29.758 0.207813 27.6762 0.11875C25.579 0.0222656 24.9132 0 19.5938 0Z" fill="black"/>
<path d="M19.5938 9.24023C14.0371 9.24023 9.52899 13.6117 9.52899 19C9.52899 24.3883 14.0371 28.7598 19.5938 28.7598C25.1504 28.7598 29.6585 24.3883 29.6585 19C29.6585 13.6117 25.1504 9.24023 19.5938 9.24023ZM19.5938 25.3309C15.9888 25.3309 13.0651 22.4957 13.0651 19C13.0651 15.5043 15.9888 12.6691 19.5938 12.6691C23.1987 12.6691 26.1224 15.5043 26.1224 19C26.1224 22.4957 23.1987 25.3309 19.5938 25.3309Z" fill="black"/>
<path d="M32.4062 8.8542C32.4062 10.1159 31.35 11.1327 30.0565 11.1327C28.7554 11.1327 27.7068 10.1085 27.7068 8.8542C27.7068 7.59248 28.763 6.57568 30.0565 6.57568C31.35 6.57568 32.4062 7.5999 32.4062 8.8542Z" fill="black"/>
</g>
<defs>
<clipPath id="clip0_48_111">
<rect width="39.1875" height="38" fill="white" transform="translate(71.25)"/>
</clipPath>
<clipPath id="clip1_48_111">
<rect width="39.1875" height="38" fill="white" transform="translate(141.312)"/>
</clipPath>
<clipPath id="clip2_48_111">
<rect width="39.1875" height="38" fill="white"/>
</clipPath>
</defs>
</svg>
